<svg width="44" height="44" viewBox="0 0 44 44" fill="none" xmlns="http://www.w3.org/2000/svg">
<g clip-path="url(#clip0_98_1418)">
<path d="M11 9.16667C11 8.19421 11.3863 7.26158 12.0739 6.57394C12.7616 5.88631 13.6942 5.5 14.6667 5.5H29.3333C30.3058 5.5 31.2384 5.88631 31.9261 6.57394C32.6137 7.26158 33 8.19421 33 9.16667V34.8333C33 35.8058 32.6137 36.7384 31.9261 37.4261C31.2384 38.1137 30.3058 38.5 29.3333 38.5H14.6667C13.6942 38.5 12.7616 38.1137 12.0739 37.4261C11.3863 36.7384 11 35.8058 11 34.8333V9.16667Z" stroke="#2C3E50" stroke-width="2.75" stroke-linecap="round" stroke-linejoin="round"/>
<path d="M20.1665 7.33337H23.8332" stroke="#2C3E50" stroke-width="2.75" stroke-linecap="round" stroke-linejoin="round"/>
<path d="M22 31.1666V31.185" stroke="#2C3E50" stroke-width="2.75" stroke-linecap="round" stroke-linejoin="round"/>
</g>
<defs>
<clipPath id="clip0_98_1418">
<rect width="44" height="44" fill="white"/>
</clipPath>
</defs>
</svg>
