<svg width="44" height="44" viewBox="0 0 44 44" fill="none" xmlns="http://www.w3.org/2000/svg">
<g clip-path="url(#clip0_98_1423)">
<path d="M14.6665 12.8333C14.6665 14.7783 15.4391 16.6435 16.8144 18.0188C18.1897 19.3941 20.0549 20.1667 21.9998 20.1667C23.9448 20.1667 25.81 19.3941 27.1853 18.0188C28.5606 16.6435 29.3332 14.7783 29.3332 12.8333C29.3332 10.8884 28.5606 9.02315 27.1853 7.64788C25.81 6.27262 23.9448 5.5 21.9998 5.5C20.0549 5.5 18.1897 6.27262 16.8144 7.64788C15.4391 9.02315 14.6665 10.8884 14.6665 12.8333Z" stroke="#2C3E50" stroke-width="2.75" stroke-linecap="round" stroke-linejoin="round"/>
<path d="M11 38.5V34.8333C11 32.8884 11.7726 31.0232 13.1479 29.6479C14.5232 28.2726 16.3884 27.5 18.3333 27.5H25.6667C27.6116 27.5 29.4768 28.2726 30.8521 29.6479C32.2274 31.0232 33 32.8884 33 34.8333V38.5" stroke="#2C3E50" stroke-width="2.75" stroke-linecap="round" stroke-linejoin="round"/>
</g>
<defs>
<clipPath id="clip0_98_1423">
<rect width="44" height="44" fill="white"/>
</clipPath>
</defs>
</svg>
